<?xml version="1.0" standalone="no"?>
<!DOCTYPE svg PUBLIC "-//W3C//DTD SVG 20010904//EN"
 "http://www.w3.org/TR/2001/REC-SVG-20010904/DTD/svg10.dtd">
<svg version="1.0" xmlns="http://www.w3.org/2000/svg"
 width="1350.000000pt" height="561.000000pt" viewBox="0 0 1350.000000 561.000000"
 preserveAspectRatio="xMidYMid meet">
<metadata>
Created by potrace 1.10, written by Peter Selinger 2001-2011
</metadata>
<g transform="translate(0.000000,561.000000) scale(0.100000,-0.100000)"
fill="#000000" stroke="none">
<path d="M5643 5482 l-572 -2 -12 -22 c-9 -16 -10 -337 -6 -1292 4 -699 7
-1474 7 -1723 0 -405 2 -453 16 -468 16 -15 149 -16 1699 -13 1315 2 1685 6
1697 15 13 11 14 221 10 1745 -3 1112 -8 1740 -14 1752 -11 20 -215 20 -2825
8z m2582 -62 c0 -17 -53 -37 -134 -51 -75 -12 -83 -23 -41 -58 43 -36 35 -56
-30 -80 -52 -19 -65 -47 -26 -57 35 -8 60 -38 44 -51 -8 -6 -129 -14 -293 -18
-359 -9 -332 -9 -795 -9 -217 0 -462 0 -545 0 -82 0 -226 2 -320 4 -93 2 -242
0 -330 -4 -99 -5 -173 -4 -195 2 l-35 10 38 16 c20 9 64 19 97 23 33 3 68 11
77 18 15 11 15 13 -3 23 -10 5 -64 15 -119 22 -55 6 -104 16 -109 20 -13 13
28 27 100 35 64 7 151 32 159 45 11 18 -9 40 -53 56 -61 22 -284 30 -390 15
-88 -13 -146 -2 -140 28 5 24 158 26 1703 26 1183 0 1340 -2 1340 -15z m155
-280 c0 -5 -11 -10 -25 -10 -14 0 -25 5 -25 10 0 6 11 10 25 10 14 0 25 -4 25
-10z m-1198 -132 c90 -8 142 -8 180 -1 72 15 630 5 625 -11 -5 -15 -65 -34
-150 -47 -50 -8 -132 -9 -267 -3 -107 5 -296 9 -420 9 -137 1 -246 6 -279 13
-29 7 -55 12 -57 12 -2 0 -4 4 -4 9 0 8 36 25 75 35 23 5 113 1 297 -16z
m-1315 -4 c199 -22 333 -22 417 0 63 17 82 17 210 6 132 -11 180 -21 160 -32
-5 -3 -38 -13 -74 -22 -100 -25 -239 -35 -338 -24 -54 6 -143 7 -232 2 -80 -5
-208 -9 -285 -9 -153 0 -189 9 -183 48 2 18 13 24 63 33 83 16 104 16 262 -2z
m2556 -9 c8 -19 -5 -26 -63 -31 -59 -6 -98 10 -79 32 16 20 135 20 142 -1z
m-715 -131 c42 -8 86 -18 96 -21 115 -34 -639 -62 -884 -32 -89 10 -154 28
-106 29 10 0 94 7 187 15 125 12 183 13 231 5 84 -13 165 -11 208 5 48 18 175
18 268 -1z m699 -1 c5 -14 -13 -20 -104 -33 -96 -13 -124 -2 -87 35 13 12 34
15 102 13 54 -2 87 -7 89 -15z m-2552 -9 c66 -8 124 -19 129 -24 23 -23 -46
-34 -242 -38 l-204 -5 4 29 c3 24 9 30 48 40 63 17 127 16 265 -2z m521 -9 c8
-19 -13 -45 -35 -45 -32 0 -91 21 -86 30 16 25 113 37 121 15z m214 -4 c50 -9
43 -14 -38 -30 -68 -14 -74 -14 -97 2 -43 32 26 46 135 28z m1768 -104 c29 -7
53 -16 53 -22 0 -5 -42 -15 -93 -22 -126 -16 -148 -16 -155 3 -16 43 86 64
195 41z m-918 -24 c191 -37 86 -48 -465 -47 -253 0 -472 3 -487 7 -31 8 -36
28 -14 46 12 10 43 9 143 -3 234 -27 293 -29 343 -11 25 10 70 21 100 25 75
11 288 1 380 -17z m-1492 1 c43 -13 21 -21 -70 -27 -51 -3 -141 -13 -200 -23
-99 -16 -108 -16 -132 -1 -29 19 -26 43 8 58 23 10 356 4 394 -7z m292 -24
c11 -7 2 -9 -30 -9 -37 1 -41 2 -20 9 34 11 33 11 50 0z m2108 -101 c107 -21
41 -43 -128 -44 -98 0 -105 1 -105 20 0 44 82 52 233 24z m-725 -18 c13 -13
14 -13 -98 -15 -61 -1 -106 -8 -140 -20 -42 -16 -77 -19 -225 -20 -96 0 -247
8 -335 17 -158 16 -205 15 -407 -9 -37 -4 -58 -3 -58 3 0 13 45 43 76 52 44
11 1175 4 1187 -8z m-1825 3 c37 -10 25 -22 -30 -29 -56 -7 -114 7 -103 25 7
11 96 13 133 4z m392 -4 c11 -7 8 -11 -15 -20 -33 -13 -57 -10 -62 7 -7 19 52
29 77 13z m-972 -29 c18 -11 -7 -21 -54 -21 -24 0 -34 5 -34 15 0 17 65 21 88
6z m1126 -66 c15 -21 150 -44 256 -44 47 -1 153 6 235 14 179 18 396 20 412 4
15 -15 5 -45 -21 -58 -16 -9 -154 -13 -505 -14 -456 -2 -484 -1 -495 16 -9 15
-4 24 31 57 45 43 69 49 87 25z m2069 -34 c23 -23 -14 -32 -169 -42 -170 -12
-220 -5 -207 27 3 8 15 20 27 25 29 13 335 4 349 -10z m-2975 -27 c18 -5 15
-32 -5 -38 -16 -4 -267 -10 -300 -7 -7 0 -13 12 -13 26 0 24 0 24 113 27 109
3 179 0 205 -8z m502 7 l45 -7 -34 -12 c-57 -20 -131 -12 -131 14 0 15 44 17
120 5z m1609 0 c18 -12 4 -18 -44 -21 -56 -4 -75 -1 -75 9 0 18 94 28 119 12z
m-355 -117 c43 -17 -3 -78 -57 -76 -17 1 -243 5 -502 9 -408 7 -470 10 -470
23 0 11 21 19 69 29 58 12 93 13 215 3 187 -16 264 -15 326 2 51 15 387 22
419 10z m1218 -12 c8 -8 8 -15 3 -21 -15 -15 -253 -33 -274 -21 -22 11 -34 37
-25 52 9 15 281 5 296 -10z m-2722 -18 c13 -13 13 -16 0 -24 -25 -16 -80 -12
-87 6 -15 39 51 52 87 18z m1768 15 c81 -20 83 -36 5 -50 -94 -18 -175 13
-128 47 23 17 61 18 123 3z m-2002 -20 c3 -6 0 -18 -9 -26 -12 -12 -43 -15
-153 -15 -77 0 -145 1 -151 1 -7 1 -13 10 -13 21 0 18 6 19 83 14 45 -3 102
-1 127 4 63 14 108 14 116 1z m2927 -105 c41 -7 50 -31 15 -39 -13 -2 -72 -6
-132 -7 -92 -3 -110 -1 -119 14 -8 12 -7 21 3 34 13 14 27 16 105 10 49 -3
107 -9 128 -12z m-1309 0 c24 -9 19 -31 -10 -51 -38 -24 -307 -21 -343 5 -53
39 -18 49 191 51 80 0 153 -2 162 -5z m360 -2 c54 -8 66 -21 41 -46 -23 -23
-243 -24 -251 -1 -18 45 72 65 210 47z m564 -5 c24 -29 -3 -39 -96 -36 -102 4
-138 21 -81 37 51 15 165 14 177 -1z m-2637 -23 c22 -26 -7 -34 -129 -34 -103
0 -113 2 -110 17 4 22 41 30 144 32 63 1 85 -3 95 -15z m425 2 c13 -10 16 -18
8 -25 -11 -12 -224 -24 -249 -15 -24 10 -17 33 13 40 15 3 32 7 37 9 6 2 46 4
91 4 55 1 86 -3 100 -13z m819 -87 c54 -14 93 -50 71 -68 -16 -14 -276 -34
-303 -24 -25 10 -53 45 -50 63 2 11 25 18 87 26 116 15 144 16 195 3z m712
-17 c21 -13 -13 -50 -55 -61 -40 -11 -189 -17 -198 -8 -14 14 19 45 63 60 50
17 169 22 190 9z m716 -14 c8 -12 7 -21 -2 -32 -23 -27 -307 -18 -306 9 1 6
25 13 55 17 30 4 73 11 95 17 62 15 146 9 158 -11z m390 3 c8 -8 9 -16 1 -29
-16 -25 -221 -26 -237 -1 -6 9 -7 24 -3 34 6 16 17 17 117 13 63 -3 116 -11
122 -17z m-2606 -7 c73 -6 116 -24 98 -43 -5 -5 -74 -18 -152 -27 -128 -16
-148 -17 -200 -4 -49 13 -59 19 -61 39 -6 42 18 49 136 45 59 -3 139 -7 179
-10z m1111 -10 c3 -24 -30 -57 -54 -52 -23 4 -58 53 -49 68 4 6 26 10 53 8 39
-2 48 -7 50 -24z m-1568 -10 c26 -30 -7 -42 -115 -44 -55 -1 -106 -1 -112 -1
-14 1 -18 43 -6 54 3 4 55 7 113 7 85 0 110 -3 120 -16z m3058 -110 c17 -3 22
-11 22 -34 0 -35 -23 -50 -77 -50 -63 0 -125 59 -89 85 15 11 88 11 144 -1z
m-1190 -21 c3 -17 -6 -27 -40 -44 -55 -29 -202 -39 -232 -16 -19 14 -19 16 -2
41 25 39 49 45 166 43 100 -2 105 -3 108 -24z m346 11 c19 -18 21 -45 4 -62
-15 -15 -168 -17 -168 -2 0 15 42 61 65 70 33 14 83 11 99 -6z m542 -5 c24
-14 34 -28 34 -45 0 -24 -2 -24 -88 -24 -183 0 -334 12 -339 28 -8 21 15 32
72 33 28 0 75 7 105 14 91 21 177 18 216 -6z m-2311 -4 c125 -4 163 -9 175
-21 27 -28 -10 -40 -142 -48 -68 -3 -164 -9 -213 -12 -79 -5 -93 -4 -113 13
-20 15 -22 22 -13 45 12 31 29 37 96 32 28 -2 122 -6 210 -9z m389 -18 c18
-24 19 -29 6 -37 -37 -24 -80 -4 -80 35 0 45 41 46 74 2z m-820 -9 c17 -28
-15 -53 -67 -52 -89 1 -197 17 -197 29 0 33 43 43 169 41 68 -1 86 -4 95 -18z
m1343 6 c7 -21 -86 -44 -172 -44 -68 0 -85 3 -99 19 -10 11 -15 25 -11 31 9
15 277 9 282 -6z m861 -117 c18 -14 15 -31 -9 -53 -19 -17 -35 -19 -142 -16
-67 1 -126 7 -131 12 -17 17 38 63 86 71 53 8 178 0 196 -14z m592 -2 c18 -21
8 -48 -20 -56 -14 -4 -121 -7 -238 -8 -184 -1 -213 1 -219 15 -10 27 12 36
103 40 49 3 121 9 159 13 119 14 201 13 215 -4z m254 9 c19 -7 21 -45 4 -62
-7 -7 -36 -12 -65 -12 -47 0 -55 3 -65 25 -17 37 4 55 62 55 27 0 55 -3 64 -6z
m-1436 -30 c-21 -22 -210 -54 -314 -54 -70 0 -101 4 -119 16 -26 17 -34 44
-12 45 6 0 71 0 142 0 72 0 164 3 205 7 91 9 117 5 98 -14z m-990 0 c15 -3 22
-11 20 -22 -4 -21 -72 -31 -238 -34 -122 -3 -171 10 -178 44 -3 14 7 17 55 20
78 4 312 -1 341 -8z m313 -5 c30 -30 19 -44 -39 -47 -59 -3 -92 10 -92 38 0
34 98 42 131 9z m-893 -9 c22 -8 32 -18 30 -29 -4 -20 -107 -26 -238 -14 -72
7 -85 11 -88 27 -2 10 2 23 10 27 18 12 246 3 286 -11z m2515 -101 c167 -12
187 -15 187 -31 0 -10 -11 -25 -25 -34 -21 -14 -59 -18 -208 -20 -222 -5 -234
-3 -243 39 -9 41 25 71 71 63 16 -2 114 -10 218 -17z m-384 -3 c28 -34 -42
-86 -116 -86 -81 0 -113 11 -130 43 -14 28 -14 31 3 44 26 19 227 18 243 -1z
m872 4 c11 -6 19 -21 19 -35 0 -36 -27 -45 -134 -45 -87 0 -96 2 -96 19 0 10
7 24 15 31 41 34 155 51 196 30z m-2051 -10 c50 -14 72 -32 64 -53 -13 -34
-134 -15 -155 25 -19 35 21 48 91 28z m-393 -26 c4 -11 -5 -24 -26 -41 -31
-24 -42 -65 -21 -78 16 -10 50 -82 50 -106 0 -12 -16 -39 -35 -60 -61 -68 -99
-174 -75 -209 9 -13 12 -12 22 5 6 11 53 61 104 110 99 96 110 118 101 190 -6
38 -3 46 15 60 44 30 150 7 163 -36 8 -26 0 -36 -35 -44 -42 -9 -41 -43 0 -52
40 -8 71 -47 64 -82 -3 -14 -25 -65 -50 -114 -73 -146 -57 -165 49 -57 75 77
112 145 102 189 -10 48 49 80 94 52 16 -10 68 -207 77 -291 9 -81 0 -88 -126
-100 -226 -23 -269 -37 -242 -81 8 -12 11 -23 9 -25 -3 -3 -57 -13 -121 -23
-63 -9 -118 -20 -122 -24 -13 -12 6 -37 33 -43 73 -16 74 -15 -107 -49 -46 -8
-91 -22 -100 -31 -25 -25 12 -44 89 -45 95 -2 199 -14 181 -21 -8 -4 -73 -14
-144 -23 -164 -20 -176 -23 -176 -45 0 -26 4 -27 95 -35 80 -7 93 -10 83 -20
-11 -12 -286 -25 -537 -26 -244 -1 -266 0 -278 17 -18 25 -19 517 0 531 6 5
45 15 85 21 41 7 82 17 93 22 24 13 25 40 2 41 -10 0 -31 2 -48 3 -16 1 -51 3
-78 4 -40 2 -49 6 -59 27 -22 49 0 57 202 66 287 14 283 40 -8 57 -170 10
-202 17 -202 48 0 31 40 35 270 32 200 -3 230 -5 247 -20 27 -25 40 -22 58 11
8 16 24 32 35 36 28 9 25 20 -15 51 -19 14 -35 32 -35 39 0 19 32 42 70 50 85
16 92 28 28 45 -24 7 -53 18 -65 26 -25 16 -31 49 -10 57 6 3 74 6 150 6 118
1 139 -1 144 -15z m877 10 c42 -16 -9 -62 -56 -51 -34 9 -62 32 -54 45 8 13
83 16 110 6z m-1296 -36 l3 -28 -219 0 c-184 0 -221 2 -226 15 -3 8 4 21 17
30 18 13 55 15 222 13 l200 -3 3 -27z m1465 25 c11 -10 -24 -43 -45 -43 -21 0
-22 4 -8 31 10 19 40 26 53 12z m-883 -23 c0 -11 -7 -20 -15 -20 -8 0 -15 9
-15 20 0 11 7 20 15 20 8 0 15 -9 15 -20z m1074 -77 c3 -10 2 -70 -3 -133 -6
-105 -11 -123 -48 -205 -22 -49 -44 -108 -47 -130 -12 -72 -14 -75 -56 -75
-48 0 -70 8 -70 26 0 8 14 45 31 82 25 53 33 86 38 157 4 50 14 104 22 120 26
52 81 149 92 163 14 17 35 15 41 -5z m311 -17 c66 -28 77 -81 61 -291 l-8
-100 49 -84 c27 -47 55 -87 61 -89 22 -7 13 40 -18 95 -34 61 -38 108 -15 196
8 32 15 67 15 78 0 11 11 31 25 45 l24 24 352 -5 c353 -4 379 -7 379 -41 0
-27 -41 -34 -217 -35 -170 0 -265 -8 -280 -23 -21 -21 31 -29 243 -38 137 -5
233 -13 241 -19 16 -14 17 -71 1 -87 -7 -7 -40 -12 -78 -12 -78 0 -110 -8
-110 -26 0 -21 34 -34 93 -34 39 0 62 -6 78 -19 l24 -19 0 -257 c0 -242 -1
-257 -19 -271 -28 -20 -533 -21 -561 0 -17 12 -17 13 8 20 20 5 27 13 27 31 0
14 -7 26 -17 29 -37 11 -202 35 -293 42 -87 7 -91 8 -50 15 25 4 88 12 141 18
53 6 104 14 113 17 49 19 -32 45 -179 59 -116 11 -135 23 -65 44 21 6 42 17
46 23 13 20 -35 46 -94 53 -164 17 -151 13 -154 53 -3 37 -4 37 -60 47 -64 11
-98 34 -98 65 0 12 23 66 51 120 44 87 53 116 73 231 17 100 27 135 41 145 25
18 126 18 170 0z m894 1 c31 -15 36 -31 17 -49 -17 -18 -116 -25 -482 -34
l-260 -7 -22 23 c-12 13 -22 34 -22 47 l0 23 186 0 c104 0 203 -5 223 -11 28
-8 43 -7 71 5 44 19 253 22 289 3z m-1891 -25 c16 -21 15 -27 -4 -46 -20 -21
-93 -21 -122 0 -24 17 -29 43 -9 63 17 17 118 5 135 -17z m442 3 c10 -12 9
-20 -4 -40 -16 -24 -35 -30 -86 -26 -35 3 -63 37 -50 62 9 15 22 19 69 19 40
0 63 -5 71 -15z m-1402 -32 c3 -27 -1 -33 -20 -37 -13 -3 -117 -2 -233 2 -208
7 -210 7 -213 30 -2 15 3 24 17 30 11 4 116 7 233 7 l213 0 3 -32z m1167 2 c0
-25 -40 -33 -49 -10 -9 24 2 37 27 33 14 -2 22 -10 22 -23z m161 -96 c3 -6 8
-55 11 -109 4 -97 3 -99 -32 -167 -46 -85 -71 -113 -105 -113 -38 0 -50 18
-50 78 0 29 -9 90 -21 134 -11 44 -19 99 -17 122 3 35 7 42 27 44 29 4 41 -12
41 -56 0 -46 36 -114 58 -110 13 3 17 15 18 58 0 81 2 88 24 110 23 23 36 25
46 9z m1542 -1016 c16 -22 17 -224 0 -241 -9 -9 -161 -12 -627 -11 -579 0
-729 5 -690 21 9 4 93 10 185 14 93 3 175 11 181 16 14 11 0 48 -17 48 -5 0
-21 5 -37 11 -25 9 -26 12 -11 20 10 5 68 14 130 19 152 13 185 19 199 36 15
19 7 26 -54 48 -27 10 -45 22 -40 27 10 10 266 15 558 11 180 -3 212 -5 223
-19z m-2538 -3 c12 -8 13 -13 3 -29 -9 -14 -9 -22 0 -35 12 -15 100 -37 207
-51 72 -10 76 -13 45 -40 -14 -13 -25 -29 -25 -34 0 -6 34 -20 76 -33 54 -15
71 -24 58 -29 -11 -3 -268 -8 -572 -11 -462 -4 -555 -3 -572 9 -18 13 -20 26
-20 129 0 110 1 115 23 124 30 12 758 12 777 0z"/>
<path d="M6805 5350 c-72 -10 -95 -19 -95 -36 0 -26 48 -34 198 -34 135 0 376
21 415 36 24 9 21 31 -5 38 -32 8 -452 5 -513 -4z"/>
<path d="M6261 5339 c-58 -11 -72 -26 -46 -46 36 -27 315 -3 315 28 0 27 -165
39 -269 18z"/>
<path d="M6669 5236 c-2 -3 -48 -13 -103 -24 -189 -38 -137 -58 149 -56 164 1
449 25 462 38 6 6 -46 12 -277 30 -211 18 -224 18 -231 12z"/>
<path d="M6145 5214 c-100 -26 -114 -48 -34 -59 57 -8 239 3 259 15 9 6 3 13
-21 26 -34 17 -161 29 -204 18z"/>
<path d="M7300 5201 c-34 -10 123 -41 206 -41 67 0 112 21 84 40 -17 11 -251
12 -290 1z"/>
<path d="M8625 2150 c-3 -5 1 -20 9 -32 9 -12 16 -43 16 -68 0 -25 4 -51 9
-59 17 -26 31 0 31 56 0 38 5 62 16 74 9 10 13 23 9 28 -8 14 -82 14 -90 1z"/>
<path d="M8780 2141 c-13 -26 -13 -128 1 -137 6 -3 18 1 26 9 14 14 18 13 38
-11 25 -29 55 -25 55 7 0 31 19 35 32 7 22 -51 38 -25 38 64 0 71 -18 92 -49
61 -12 -12 -21 -29 -21 -39 0 -21 -18 -42 -37 -42 -7 0 -17 18 -23 40 -13 49
-44 70 -60 41z"/>
<path d="M5979 1493 c-9 -10 -75 -117 -149 -238 -73 -121 -147 -242 -165 -270
-18 -27 -54 -87 -80 -132 -26 -45 -55 -89 -66 -99 -24 -22 -25 -71 -1 -76 45
-10 55 2 195 234 28 48 116 194 195 324 79 130 142 243 140 252 -4 24 -51 27
-69 5z"/>
<path d="M2313 1461 c-115 -19 -215 -160 -184 -261 21 -71 52 -96 139 -115
149 -33 182 -58 182 -139 0 -43 -4 -53 -36 -82 -37 -35 -53 -39 -139 -35 -63
4 -84 15 -97 52 -18 51 -51 33 -61 -34 -8 -52 21 -81 96 -97 47 -9 67 -9 118
4 137 36 222 146 206 268 -11 79 -63 122 -168 137 -95 13 -132 32 -153 76 -16
32 -17 44 -7 77 16 53 59 78 131 78 61 0 96 -17 110 -56 5 -13 16 -24 24 -24
28 0 46 62 30 105 -14 36 -110 59 -191 46z"/>
<path d="M8275 1451 c-76 -5 -90 -9 -93 -24 -2 -10 5 -28 15 -39 17 -19 18
-43 18 -317 l1 -296 102 -3 c91 -2 106 0 150 22 86 43 152 139 152 217 -1 38
-34 102 -69 131 -17 15 -31 31 -31 36 0 6 11 34 25 64 14 29 25 67 25 83 0 36
-30 88 -63 109 -29 19 -112 25 -232 17z m142 -82 c38 -13 69 -66 59 -102 -10
-41 -47 -76 -103 -97 -69 -26 -76 -17 -72 96 3 71 7 88 23 100 24 17 52 18 93
3z m57 -294 c56 -37 72 -114 36 -173 -25 -41 -58 -54 -129 -50 -69 4 -81 22
-81 128 0 106 14 124 90 117 32 -3 70 -13 84 -22z"/>
<path d="M275 1441 c-77 -4 -146 -10 -153 -14 -10 -7 -8 -16 8 -43 21 -33 21
-44 19 -321 l-2 -288 174 0 c172 0 175 0 233 29 129 63 206 192 206 346 0 123
-37 209 -109 254 -41 26 -135 47 -195 44 -23 -1 -104 -4 -181 -7z m284 -91
c46 -23 65 -45 90 -100 62 -140 17 -326 -90 -381 -30 -15 -72 -24 -139 -29
-130 -10 -169 -4 -181 27 -14 38 -11 443 4 473 10 20 23 26 62 32 81 10 214
-1 254 -22z"/>
<path d="M6116 1442 c-22 -5 -20 -31 4 -67 19 -28 20 -47 20 -303 0 -220 -3
-278 -15 -301 -14 -28 -51 -46 -77 -36 -20 7 -42 -11 -35 -29 16 -42 107 -42
156 0 45 38 50 77 53 376 3 265 4 278 25 306 11 16 18 34 15 39 -7 11 -113 21
-146 15z"/>
<path d="M9777 1337 c-72 -25 -129 -71 -170 -137 -19 -30 -22 -49 -22 -145 0
-121 9 -151 69 -213 55 -59 107 -77 221 -77 117 0 185 20 203 60 11 23 9 25
-13 25 -13 0 -36 -5 -51 -11 -16 -5 -58 -10 -95 -11 -116 -1 -213 60 -245 154
-45 136 4 270 110 300 88 25 226 10 258 -28 26 -30 44 -31 58 -3 34 62 -25 99
-165 106 -76 3 -101 0 -158 -20z"/>
<path d="M1060 1341 c-97 -22 -182 -81 -226 -157 -38 -65 -44 -178 -14 -258
43 -113 138 -176 268 -176 121 0 231 69 285 179 28 57 32 76 32 146 0 133 -43
206 -148 250 -43 18 -150 26 -197 16z m153 -81 c75 -33 117 -106 117 -202 0
-159 -96 -259 -235 -245 -152 16 -228 118 -212 287 3 32 13 71 22 87 18 30 95
88 130 97 37 9 130 -3 178 -24z"/>
<path d="M4114 1340 c-17 -5 -49 -28 -72 -50 -68 -67 -79 -156 -26 -219 20
-24 41 -33 112 -50 99 -23 122 -42 122 -102 0 -53 -33 -89 -87 -96 -68 -9
-111 4 -129 38 -23 46 -48 35 -52 -23 -4 -54 12 -70 86 -87 126 -28 262 82
262 211 0 76 -51 120 -160 137 -70 12 -87 22 -107 69 -11 28 -11 36 2 62 20
39 43 50 102 50 54 0 65 -5 82 -37 15 -30 39 -29 52 1 15 31 5 67 -21 84 -27
16 -127 24 -166 12z"/>
<path d="M4605 1341 c-91 -24 -173 -89 -210 -166 -33 -71 -36 -198 -5 -268 23
-52 78 -109 130 -134 46 -22 158 -29 218 -13 144 40 234 158 236 310 1 122
-36 191 -132 247 -37 22 -60 27 -126 29 -45 2 -94 0 -111 -5z m188 -88 c96
-52 134 -182 87 -304 -25 -68 -62 -105 -123 -125 -96 -32 -215 4 -269 82 -39
55 -54 141 -37 218 10 49 21 68 55 103 23 23 57 47 76 52 55 17 153 5 211 -26z"/>
<path d="M12666 1343 l-78 -4 7 -32 c16 -77 28 -362 17 -431 -7 -43 -7 -75 -2
-81 6 -7 61 -12 148 -13 121 -2 141 0 154 15 24 28 29 57 14 78 -14 19 -14 19
-36 0 -16 -15 -40 -21 -94 -23 -92 -5 -98 1 -94 105 l3 78 68 6 c76 6 109 27
91 56 -8 13 -27 17 -78 19 -37 1 -73 8 -81 14 -18 15 -20 121 -3 138 15 15
109 16 142 1 46 -21 76 29 40 65 -16 16 -28 17 -218 9z"/>
<path d="M13070 1341 c-72 -7 -72 -6 -45 -81 14 -37 16 -76 13 -222 -3 -158
-5 -178 -23 -198 -31 -35 -10 -55 58 -55 70 1 87 14 63 50 -11 16 -19 52 -21
94 -3 69 4 97 23 90 6 -2 48 -53 94 -114 92 -121 119 -140 163 -111 l26 17
-49 57 c-83 98 -142 178 -142 193 0 9 14 28 31 45 39 37 69 95 69 133 0 45
-45 91 -100 102 -48 9 -59 9 -160 0z m150 -83 c31 -34 26 -71 -15 -107 -60
-53 -95 -37 -95 42 0 26 5 57 10 68 15 27 73 26 100 -3z"/>
<path d="M3680 1331 c-71 -5 -85 -9 -88 -24 -2 -10 4 -27 13 -37 14 -16 17
-48 18 -223 2 -187 0 -207 -17 -226 -32 -35 -15 -51 58 -51 36 0 68 5 71 10 3
6 -3 23 -14 39 -17 23 -21 44 -21 103 0 44 5 81 13 90 6 9 32 19 57 22 139 21
205 214 95 277 -39 23 -81 27 -185 20z m120 -76 c66 -34 37 -153 -43 -171 -43
-9 -57 14 -57 92 0 89 32 114 100 79z"/>
<path d="M6430 1333 c-95 -5 -107 -14 -79 -59 20 -33 21 -46 18 -267 l-3 -232
119 -8 c149 -10 183 -4 196 30 11 30 3 63 -15 63 -7 0 -21 -7 -32 -15 -12 -9
-44 -14 -91 -15 -88 0 -103 14 -103 100 0 80 13 94 96 100 70 5 94 21 81 54
-5 13 -21 16 -81 16 -88 0 -96 8 -96 89 0 43 4 53 25 67 24 16 48 16 148 -2
36 -6 37 -5 37 24 0 17 -7 38 -16 46 -16 16 -27 17 -204 9z"/>
<path d="M6808 1333 c-63 -4 -80 -23 -51 -55 16 -18 18 -45 21 -219 3 -189 2
-201 -18 -234 -12 -19 -19 -39 -15 -45 8 -13 132 -13 140 0 4 6 0 21 -8 33
-20 31 -33 173 -17 192 7 8 16 12 21 9 5 -3 41 -49 80 -102 89 -120 113 -141
162 -142 30 0 37 4 37 19 0 10 -8 25 -17 32 -35 29 -173 211 -173 229 0 10 13
28 29 39 74 53 94 149 43 201 -16 15 -46 33 -68 39 -38 11 -50 11 -166 4z
m157 -88 c14 -13 25 -32 25 -42 -1 -57 -101 -131 -125 -93 -12 19 -15 121 -5
141 16 29 74 26 105 -6z"/>
<path d="M7310 1331 c-72 -7 -85 -22 -56 -63 24 -34 23 -407 0 -443 -27 -41
-13 -55 55 -55 33 0 63 4 66 10 3 5 -1 24 -9 42 -16 37 -30 155 -21 180 8 20
42 12 55 -13 15 -28 109 -150 143 -186 24 -26 39 -33 68 -33 52 0 56 21 12 67
-40 43 -163 200 -163 209 0 3 20 28 44 55 30 33 48 65 57 100 17 65 28 74 72
55 36 -15 60 -45 143 -181 44 -73 49 -87 52 -152 4 -62 1 -76 -18 -102 -12
-17 -18 -35 -15 -41 3 -5 35 -10 71 -10 70 0 90 15 61 48 -19 21 -31 101 -23
146 6 30 146 251 207 328 23 28 19 48 -9 48 -35 -1 -62 -28 -133 -135 -52 -77
-80 -110 -93 -110 -14 0 -34 25 -72 90 -79 137 -136 172 -212 128 -29 -16 -34
-16 -79 -1 -61 21 -120 26 -203 19z m145 -86 c14 -13 25 -35 25 -49 0 -47 -94
-116 -121 -89 -15 15 -21 107 -9 137 13 36 70 37 105 1z"/>
<path d="M8684 1325 c-6 -15 -4 -21 21 -65 11 -19 15 -66 15 -205 0 -163 -2
-184 -21 -219 -29 -54 -21 -66 45 -66 89 0 102 11 66 57 -16 21 -20 41 -20
104 0 75 1 79 23 79 16 0 33 -16 62 -62 22 -33 65 -87 95 -120 45 -46 62 -58
87 -58 17 0 36 7 43 15 10 12 7 20 -17 42 -49 46 -173 206 -173 223 0 9 16 32
36 51 73 70 86 145 35 197 -36 36 -65 42 -193 42 -78 0 -100 -3 -104 -15z
m220 -75 c31 -31 25 -79 -14 -112 -38 -31 -84 -37 -94 -12 -13 34 -6 122 11
139 20 21 69 13 97 -15z"/>
<path d="M9105 1330 c-4 -6 -1 -27 6 -47 7 -21 12 -111 14 -222 1 -103 7 -197
13 -212 13 -32 65 -77 98 -85 39 -10 110 5 149 32 43 29 65 31 65 4 0 -25 42
-37 76 -21 26 11 31 40 12 59 -10 10 -13 68 -13 222 0 154 3 212 13 221 17 18
15 46 -4 53 -29 11 -91 6 -103 -8 -10 -11 -9 -22 5 -48 22 -42 30 -198 16
-292 -9 -56 -17 -75 -43 -102 -61 -63 -142 -66 -189 -7 -18 24 -20 40 -20 207
1 135 4 187 15 206 9 18 10 29 3 37 -12 15 -104 17 -113 3z"/>
<path d="M10170 1322 c0 -10 8 -29 18 -42 15 -22 17 -51 17 -226 0 -178 -2
-204 -17 -221 -41 -44 -17 -61 75 -55 41 4 47 7 47 27 0 12 -7 28 -15 35 -20
16 -17 131 2 137 7 3 60 -41 118 -97 103 -99 107 -101 148 -98 35 2 43 7 45
26 2 12 -1 22 -7 22 -21 0 -241 222 -241 243 0 13 42 63 111 133 61 62 108
118 104 123 -3 6 -21 11 -39 11 -29 0 -46 -13 -129 -96 -52 -53 -101 -94 -109
-92 -20 7 -22 91 -3 128 26 50 15 60 -60 60 -56 0 -65 -3 -65 -18z"/>
<path d="M10670 1317 c0 -13 6 -29 13 -35 8 -9 13 -68 15 -205 3 -188 0 -217
-30 -259 -19 -27 1 -39 66 -41 67 -1 84 14 59 52 -20 31 -30 150 -14 179 11
21 18 22 151 22 135 0 139 -1 146 -22 14 -41 6 -160 -12 -179 -30 -33 -11 -49
60 -49 72 0 91 17 59 52 -16 18 -18 45 -21 213 -3 180 -2 196 18 235 11 22 18
45 15 50 -3 6 -35 10 -71 10 -73 0 -88 -14 -62 -59 23 -39 30 -134 12 -160
-14 -19 -24 -21 -144 -21 -121 0 -130 1 -144 22 -19 26 -11 130 12 165 25 40
10 53 -63 53 -61 0 -65 -1 -65 -23z"/>
<path d="M11243 1325 c-3 -9 3 -25 13 -36 17 -20 19 -41 19 -265 l0 -244 90
-2 c175 -5 192 -4 214 16 22 20 27 51 11 76 -8 13 -14 13 -44 -4 -40 -21 -138
-31 -166 -16 -17 9 -20 22 -20 89 0 52 4 82 13 89 7 6 41 12 76 14 67 3 91 19
78 52 -5 13 -21 16 -75 16 -48 0 -73 4 -81 14 -18 21 -19 119 -2 139 17 22 92
22 132 1 35 -18 59 -6 59 30 0 42 -16 46 -167 46 -120 0 -145 -3 -150 -15z"/>
<path d="M11664 1326 c-3 -8 2 -28 10 -45 13 -24 17 -71 19 -230 2 -177 0
-201 -15 -218 -10 -11 -18 -27 -18 -36 0 -14 11 -17 70 -17 77 0 97 15 67 48
-13 14 -16 55 -19 229 -3 197 -2 213 16 226 10 7 17 22 14 33 -3 16 -13 19
-71 22 -52 2 -69 0 -73 -12z"/>
<path d="M11914 1325 c-4 -9 1 -30 10 -48 16 -29 16 -48 3 -230 -12 -161 -17
-201 -32 -217 -30 -33 -13 -50 50 -50 63 0 76 14 50 53 -13 21 -15 43 -9 143
4 66 10 125 13 132 13 23 25 5 161 -255 24 -46 49 -83 56 -83 19 0 29 18 104
180 71 155 93 191 107 176 5 -4 10 -66 12 -137 2 -110 0 -133 -14 -156 -17
-25 -17 -27 1 -40 24 -18 98 -17 114 2 10 12 9 21 -3 47 -22 50 -32 410 -11
450 20 38 11 48 -41 48 -55 0 -54 1 -141 -195 -82 -183 -97 -210 -116 -210
-10 0 -46 59 -98 160 -115 223 -127 239 -173 243 -27 2 -39 -1 -43 -13z"/>
<path d="M1410 1315 c-10 -12 -7 -20 14 -46 23 -27 26 -40 27 -107 1 -42 3
-129 5 -192 2 -86 -1 -121 -13 -143 -22 -44 -11 -57 46 -57 57 0 69 11 48 43
-11 17 -15 59 -17 158 -3 169 -3 171 14 167 8 -2 85 -88 171 -191 86 -103 162
-186 168 -184 9 3 12 73 13 251 1 169 5 251 13 259 29 29 6 57 -49 57 -42 0
-58 -24 -37 -60 25 -42 25 -298 0 -307 -19 -7 -21 -5 -179 192 -58 72 -113
140 -124 153 -22 26 -81 30 -100 7z"/>
<path d="M2660 1315 c-10 -13 -9 -19 6 -36 17 -19 19 -42 22 -225 3 -195 2
-206 -18 -234 -12 -16 -18 -34 -15 -40 8 -13 132 -13 140 0 4 6 -3 25 -14 44
-19 31 -21 49 -21 222 0 173 2 192 20 222 16 27 18 37 9 48 -16 20 -113 19
-129 -1z"/>
<path d="M2908 1319 c-22 -13 -23 -27 -1 -51 15 -17 16 -31 5 -161 -7 -78 -12
-165 -12 -192 0 -30 -8 -64 -18 -85 -27 -50 -19 -60 43 -60 62 0 73 11 49 47
-15 23 -16 43 -10 147 6 124 15 151 41 126 15 -16 138 -245 156 -292 11 -28
45 -46 59 -31 4 4 42 82 84 173 83 179 92 193 107 170 9 -14 8 -270 -2 -315
-4 -18 2 -20 50 -23 66 -4 78 6 57 46 -23 45 -31 430 -9 461 22 32 10 51 -32
51 -45 0 -72 -28 -104 -107 -43 -105 -138 -300 -151 -308 -21 -13 -45 24 -140
213 -71 140 -98 186 -117 193 -30 11 -34 11 -55 -2z"/>
<path d="M5007 1323 c-13 -12 -7 -37 16 -61 21 -23 22 -32 25 -222 3 -171 1
-202 -13 -224 -24 -36 -12 -46 56 -46 62 0 69 6 45 43 -22 33 -33 285 -14 310
13 17 24 8 139 -129 180 -215 203 -238 223 -231 13 5 16 14 12 34 -3 16 -7
125 -8 243 -2 168 1 220 12 236 22 35 7 54 -45 54 -54 0 -66 -18 -41 -60 23
-39 24 -298 1 -306 -17 -7 -58 36 -193 200 -143 173 -136 166 -174 166 -19 0
-38 -3 -41 -7z"/>
<path d="M8380 447 c-57 -14 -100 -67 -100 -122 0 -37 48 -82 96 -90 50 -8 68
-18 72 -39 7 -35 -8 -64 -38 -75 -33 -11 -80 0 -80 19 0 13 -37 13 -45 -1 -16
-25 5 -58 45 -70 53 -16 110 2 151 48 24 28 29 43 29 83 0 58 -25 83 -92 94
-71 11 -99 54 -60 89 24 22 70 22 93 1 22 -20 49 -12 49 14 0 41 -58 65 -120
49z"/>
<path d="M5105 403 c11 -54 12 -263 2 -295 -8 -24 -6 -28 16 -33 14 -4 34 -2
45 4 17 9 18 15 9 54 -5 25 -7 56 -3 71 5 22 12 26 45 26 41 0 67 20 57 45 -3
10 -19 15 -45 15 -46 0 -67 25 -56 67 5 23 10 24 57 22 58 -3 83 16 59 45 -11
12 -34 16 -103 16 l-90 0 7 -37z"/>
<path d="M5861 431 c-10 -6 -11 -17 -6 -37 8 -29 11 -232 4 -289 -4 -27 -1
-30 24 -33 44 -5 57 12 45 56 -6 21 -8 92 -6 169 5 127 5 132 -16 137 -27 7
-28 7 -45 -3z"/>
<path d="M6569 433 c-1 -4 -1 -82 1 -173 2 -193 0 -190 101 -190 50 0 72 5 90
18 31 26 20 57 -19 48 -64 -16 -78 -17 -97 -2 -18 13 -20 25 -18 123 0 59 3
124 5 143 3 33 1 35 -29 38 -18 2 -34 0 -34 -5z"/>
<path d="M7301 426 c-10 -11 -10 -20 -1 -37 10 -17 9 -47 0 -131 -6 -61 -16
-123 -20 -139 -8 -26 -6 -31 16 -39 34 -13 69 5 58 28 -5 9 -8 46 -9 82 0 58
2 65 20 68 21 3 34 -13 96 -126 43 -77 61 -70 119 40 25 48 51 93 58 100 23
23 33 -12 29 -100 -3 -77 -2 -85 17 -91 11 -5 29 -6 39 -3 16 4 18 11 13 46
-6 44 -9 258 -4 291 2 15 -3 21 -23 23 -34 4 -48 -14 -112 -139 -73 -141 -77
-141 -171 16 -73 122 -97 144 -125 111z"/>
</g>
</svg>
